<?xml version="1.0" standalone="no"?>
<!DOCTYPE svg PUBLIC "-//W3C//DTD SVG 20010904//EN"
 "http://www.w3.org/TR/2001/REC-SVG-20010904/DTD/svg10.dtd">
<svg version="1.0" xmlns="http://www.w3.org/2000/svg"
 width="1350.000000pt" height="1350.000000pt" viewBox="0 0 1350.000000 1350.000000"
 preserveAspectRatio="xMidYMid meet">
<metadata>
Created by potrace 1.10, written by Peter Selinger 2001-2011
</metadata>
<g transform="translate(0.000000,1350.000000) scale(0.100000,-0.100000)"
fill="#000000" stroke="none">
<path d="M0 11808 c0 -1641 1 -1691 18 -1674 16 14 30 15 112 7 89 -10 94 -9
129 14 19 14 39 25 43 25 15 0 38 -60 41 -106 3 -76 29 -94 129 -94 65 0 87
-4 116 -22 38 -23 97 -27 184 -13 35 5 54 3 79 -9 51 -26 134 -20 204 14 58
28 61 28 80 10 17 -15 65 -30 100 -31 26 0 121 25 132 35 9 9 26 120 38 256
10 113 65 183 106 134 12 -15 22 -64 39 -199 4 -38 13 -86 19 -105 6 -19 11
-51 11 -70 1 -54 45 -219 64 -238 16 -16 18 -16 36 5 17 21 18 50 19 419 1
304 5 427 18 532 9 75 17 173 18 217 4 245 5 259 25 285 17 23 20 24 35 9 18
-18 22 -82 10 -165 -5 -33 -3 -65 5 -88 10 -30 9 -41 -3 -59 -23 -35 -21 -152
3 -223 42 -119 69 -293 76 -477 3 -84 9 -129 22 -155 15 -33 21 -37 60 -40 31
-2 49 2 69 17 14 12 40 21 58 21 18 0 52 9 77 20 90 39 212 44 255 10 31 -24
44 -16 74 42 11 21 27 38 35 38 28 0 85 -32 101 -56 11 -17 25 -24 47 -24 36
0 116 -40 164 -81 18 -16 45 -31 60 -34 15 -4 42 -13 60 -21 46 -20 53 -18
138 21 79 37 79 36 59 101 -2 7 -26 19 -54 29 -28 9 -53 21 -56 26 -11 16 -39
9 -84 -21 -48 -33 -82 -38 -100 -16 -10 11 -6 21 19 49 37 43 96 64 171 63 64
-2 101 -21 120 -64 14 -33 58 -54 82 -41 9 6 18 5 22 -1 7 -11 94 -2 113 13 6
5 11 21 10 36 -3 37 7 49 36 44 13 -3 27 0 30 6 4 6 15 11 24 10 25 -1 106
-63 111 -84 2 -10 16 -32 32 -48 17 -17 29 -39 29 -55 0 -50 39 -187 57 -199
26 -20 51 -16 68 10 13 20 15 70 14 318 -1 343 -4 519 -13 829 -8 254 -4 278
48 272 21 -2 37 5 60 27 30 29 33 30 54 15 16 -11 21 -22 17 -35 -4 -10 -3
-24 2 -31 11 -19 3 -139 -12 -168 -10 -19 -10 -31 -3 -45 8 -13 8 -41 0 -94
-6 -42 -9 -161 -7 -264 2 -164 5 -190 21 -208 17 -19 17 -22 -14 -82 -33 -64
-39 -91 -22 -102 5 -3 7 -18 4 -34 -3 -15 1 -44 10 -66 9 -21 14 -40 12 -43
-3 -2 2 -19 11 -36 9 -17 16 -43 15 -57 -1 -15 6 -37 17 -50 19 -23 19 -24 -6
-68 -31 -57 -23 -65 80 -79 88 -11 127 -32 127 -65 0 -13 -22 -50 -48 -82
l-48 -60 -129 -7 c-154 -7 -397 -40 -590 -80 -54 -11 -466 -21 -730 -18 -49 0
-125 -5 -168 -13 -61 -11 -128 -12 -300 -5 -154 6 -243 5 -292 -3 -38 -6 -92
-13 -120 -16 -80 -7 -84 -14 -15 -30 51 -11 117 -13 315 -8 138 3 266 9 285
13 44 11 271 -3 410 -25 164 -25 378 -26 470 -1 51 13 91 18 125 14 157 -18
220 -18 280 0 33 10 85 18 115 17 63 0 158 -23 192 -47 12 -9 30 -16 40 -16
34 0 28 -19 -15 -44 -33 -20 -62 -27 -127 -31 -137 -9 -239 -22 -253 -33 -6
-5 -41 -13 -77 -16 -35 -4 -65 -8 -66 -9 -1 -1 1 -17 3 -35 6 -35 28 -50 82
-55 14 -1 39 -11 56 -22 27 -18 44 -20 200 -18 165 3 172 4 246 34 98 40 129
36 129 -18 0 -28 9 -48 41 -86 l41 -48 -12 -127 c-9 -88 -10 -173 -5 -277 5
-82 7 -154 6 -160 -5 -15 -16 -302 -14 -370 1 -33 3 -136 6 -230 5 -183 -1
-230 -38 -285 -21 -32 -29 -62 -26 -97 1 -7 9 -13 20 -13 32 0 44 -28 49 -108
4 -68 2 -80 -18 -104 -12 -16 -27 -28 -34 -28 -7 0 -27 -15 -45 -34 -26 -27
-32 -40 -27 -60 9 -38 55 -86 82 -86 14 0 30 -10 39 -23 17 -27 17 -30 19
-377 0 -94 -11 -137 -39 -156 -38 -25 -69 -11 -101 43 -25 43 -28 59 -30 148
-2 77 -7 111 -24 147 -20 47 -21 49 -4 165 8 65 18 121 20 124 2 4 -1 20 -6
35 -5 16 -13 89 -18 163 -10 160 -15 166 -102 154 -59 -9 -80 -8 -291 4 -102
6 -142 12 -162 26 -29 19 -62 22 -72 8 -3 -6 -25 -1 -50 10 -25 11 -53 19 -63
18 -9 -1 -47 1 -84 5 -65 8 -68 9 -68 35 0 15 -5 32 -12 39 -19 19 56 44 152
50 125 8 204 48 217 112 7 35 35 55 91 65 40 6 47 13 43 43 -1 6 3 12 9 12 5
0 10 7 10 15 0 13 -15 15 -85 14 -78 -1 -89 1 -126 26 l-40 28 21 22 c11 12
40 31 64 44 47 23 65 49 44 63 -7 4 -16 8 -20 8 -12 0 -9 30 2 30 6 0 14 9 18
21 10 26 113 69 165 69 38 0 58 -13 90 -63 9 -15 25 -27 33 -27 12 0 15 -6 9
-22 -4 -13 -8 -36 -8 -53 -2 -28 1 -30 31 -30 17 0 32 -3 32 -7 0 -15 37 -8
53 10 25 27 37 69 44 151 8 103 8 109 -9 251 -18 153 -14 258 12 325 21 55 40
168 40 238 0 29 -7 53 -20 69 l-19 25 -193 -2 c-106 -1 -240 -7 -298 -14 -159
-20 -937 -17 -1310 4 -127 7 -140 9 -140 26 0 6 7 8 16 5 8 -3 12 -2 9 4 -11
18 5 32 21 19 11 -9 18 -8 32 3 9 9 29 18 43 22 30 7 121 66 126 81 2 6 -3 19
-10 29 -27 37 -271 41 -407 6 -118 -29 -150 -40 -150 -51 0 -13 55 -39 84 -39
39 0 136 -40 149 -61 6 -10 15 -19 20 -19 4 0 6 3 3 8 -2 4 7 12 20 19 29 13
30 9 6 -15 -30 -30 -81 -35 -332 -33 -243 1 -359 7 -398 22 -13 5 -33 4 -50
-2 -44 -18 -253 -25 -872 -31 -238 -3 -290 -1 -315 12 -36 18 -42 41 -21 85
22 46 20 78 -7 103 -13 12 -26 22 -30 22 -4 0 -7 -427 -7 -950 l0 -949 53 32
c51 31 54 32 167 31 104 -1 120 -4 167 -28 78 -39 83 -85 20 -168 -23 -31 -41
-44 -62 -46 -17 -2 -37 -9 -45 -17 -8 -7 -28 -17 -45 -22 -22 -7 -33 -19 -41
-44 -9 -27 -20 -37 -50 -47 -38 -13 -111 -12 -147 3 -16 7 -17 -48 -17 -1062
l0 -1068 112 8 c100 7 116 11 139 33 17 16 37 24 60 24 19 0 45 7 57 16 18 12
26 13 37 4 8 -7 24 -10 36 -7 14 4 28 -2 44 -19 14 -15 41 -28 74 -34 29 -5
57 -12 62 -16 30 -18 361 -54 639 -69 52 -3 122 -9 155 -14 33 -5 89 -10 125
-11 35 0 89 -8 119 -17 64 -18 496 -33 601 -20 36 4 129 9 207 10 98 1 146 6
155 15 6 6 22 12 34 12 27 0 31 10 39 120 5 59 15 99 31 132 27 54 29 70 12
133 -10 36 -9 52 2 82 7 21 14 49 16 63 1 14 9 75 17 135 9 61 20 150 26 199
13 112 40 158 109 188 26 10 74 32 107 47 33 16 121 50 195 76 74 26 146 53
160 60 14 7 75 30 135 50 60 21 133 48 161 60 74 33 143 51 290 79 85 15 147
33 182 51 37 19 77 30 129 35 81 8 119 27 141 73 8 18 21 27 36 27 32 0 50 38
44 95 -5 38 -2 51 16 72 l21 25 29 -23 c30 -23 29 -17 10 -127 -4 -19 -1 -38
6 -47 18 -21 121 -19 211 4 286 74 329 92 429 171 25 20 57 43 71 52 14 9 39
42 54 72 l28 56 -32 74 c-30 69 -32 81 -31 173 3 158 3 171 -9 327 -7 88 -8
163 -3 180 16 57 8 177 -17 246 -38 107 -43 124 -48 157 -7 43 14 100 43 120
13 8 24 24 24 35 0 31 -56 139 -100 192 -21 26 -47 66 -57 89 -10 23 -39 83
-64 132 -78 153 -84 173 -69 263 23 147 52 233 88 266 19 16 32 18 99 13 114
-8 177 -35 249 -104 34 -32 81 -73 106 -92 46 -34 48 -39 103 -214 9 -27 20
-101 25 -166 9 -107 8 -122 -11 -170 -17 -45 -18 -59 -8 -88 6 -20 9 -60 7
-90 -7 -79 -26 -94 -130 -102 l-83 -6 4 -105 c6 -158 -1 -450 -14 -585 -4 -33
-6 -110 -5 -172 0 -80 -4 -123 -15 -149 -8 -20 -15 -44 -15 -54 0 -23 28 -46
67 -55 44 -9 47 -17 25 -67 -80 -176 -96 -276 -97 -583 0 -236 7 -341 24 -373
6 -11 11 -35 11 -52 0 -17 7 -47 15 -67 8 -19 15 -42 15 -50 0 -8 11 -28 25
-45 14 -16 25 -39 25 -51 0 -33 45 -240 81 -369 17 -62 35 -135 40 -163 8 -47
39 -188 60 -280 9 -39 37 -183 65 -340 8 -44 23 -135 34 -202 23 -149 46 -277
66 -360 8 -34 14 -79 14 -100 0 -21 5 -57 10 -80 9 -37 26 -140 50 -303 5 -30
18 -116 30 -190 12 -74 25 -160 29 -190 5 -31 11 -66 15 -78 4 -12 11 -52 16
-89 9 -68 35 -219 64 -368 53 -279 110 -606 131 -755 9 -63 22 -144 30 -180
17 -80 24 -249 10 -251 -5 -1 -21 32 -35 73 -14 42 -31 88 -38 104 -13 27 -20
42 -56 114 -7 14 -21 43 -32 65 -10 22 -28 56 -40 75 -11 19 -54 98 -94 175
-40 77 -80 151 -90 165 -16 24 -83 142 -148 260 -50 92 -106 208 -174 360 -96
214 -118 266 -118 280 0 6 -7 26 -14 43 -8 18 -38 91 -66 162 -28 72 -60 153
-71 180 -12 28 -30 76 -40 107 -11 32 -27 84 -38 115 -61 188 -91 237 -91 149
0 -44 38 -137 61 -152 5 -3 9 -29 9 -58 0 -35 5 -58 15 -66 8 -7 15 -22 15
-33 0 -34 21 -138 42 -208 11 -36 20 -92 20 -123 0 -31 4 -56 9 -56 4 0 10
-15 14 -33 4 -17 15 -46 25 -64 13 -22 17 -43 13 -67 -4 -29 -1 -39 21 -59 23
-21 25 -30 20 -68 -5 -37 -3 -47 15 -63 16 -14 21 -31 21 -66 0 -34 5 -52 20
-65 12 -11 20 -31 20 -51 0 -18 5 -36 10 -39 7 -4 7 -13 0 -26 -8 -14 -7 -25
5 -41 8 -13 15 -32 15 -43 0 -33 47 -139 71 -158 20 -16 21 -18 4 -43 -16 -25
-16 -28 0 -63 10 -20 21 -43 25 -51 4 -8 21 -19 38 -25 32 -9 38 -22 34 -83
-1 -18 7 -27 32 -37 41 -17 51 -40 32 -70 -13 -20 -13 -24 4 -41 92 -91 100
-103 94 -132 -4 -21 -1 -34 10 -43 29 -24 37 -33 57 -67 21 -36 73 -72 106
-72 14 0 24 -9 32 -30 5 -17 15 -30 22 -30 6 0 8 -7 5 -16 -4 -11 1 -22 14
-31 11 -8 20 -22 20 -31 0 -9 5 -34 11 -55 8 -29 18 -41 40 -49 33 -11 64 -66
54 -97 -4 -14 0 -23 15 -31 11 -6 24 -9 28 -6 4 3 14 1 22 -4 11 -7 11 -14 0
-39 -8 -20 -10 -47 -6 -76 9 -60 0 -72 -30 -44 -21 20 -28 21 -45 11 -11 -7
-24 -10 -29 -7 -6 4 -11 0 -11 -7 -1 -7 -2 -17 -4 -23 -1 -5 -3 -18 -3 -27 -2
-13 -11 -18 -30 -18 -26 0 -28 -3 -24 -28 5 -40 -25 -74 -69 -75 -35 -1 -83
25 -93 51 -9 21 16 62 41 68 28 7 31 24 4 24 -29 0 -91 -39 -92 -58 -1 -10 0
-27 1 -40 1 -13 -6 -32 -15 -42 -26 -29 -12 -61 44 -99 38 -26 57 -32 79 -28
15 3 46 3 69 0 35 -5 42 -9 47 -34 7 -38 26 -37 26 1 0 22 6 33 23 39 12 5 33
20 46 35 13 14 27 24 31 21 3 -2 3 -28 -1 -57 -4 -29 -13 -98 -19 -153 -7 -55
-17 -106 -23 -112 -5 -7 -23 -13 -39 -13 -36 0 -68 -16 -68 -34 0 -18 45 -40
69 -33 17 4 19 2 10 -20 -5 -13 -9 -37 -9 -53 0 -30 -14 -47 -25 -30 -10 16
-27 0 -20 -19 6 -14 8 -61 6 -143 -1 -19 -6 -28 -17 -28 -9 0 -14 -7 -12 -17
3 -17 51 -18 813 -21 568 -1 818 1 837 9 14 6 36 21 48 34 l22 23 -22 208
c-18 179 -20 254 -16 524 3 228 8 338 20 400 22 118 24 169 30 734 3 275 8
507 11 516 3 8 9 159 15 335 5 176 16 376 24 445 37 312 52 951 35 1425 -6
165 -12 316 -14 335 -2 19 -8 157 -14 305 -13 332 -28 562 -42 678 -6 48 -8
94 -5 102 10 26 -20 228 -42 280 -21 52 -34 99 -53 199 -6 32 -31 98 -56 145
-48 89 -135 225 -153 236 -15 9 7 45 28 45 9 0 28 -12 41 -25 27 -29 25 -28
186 -50 66 -9 134 -21 151 -26 17 -5 55 -14 85 -19 30 -5 83 -17 119 -26 36
-8 101 -21 145 -29 93 -15 284 -64 370 -95 60 -21 123 -32 285 -50 78 -9 118
-17 270 -55 30 -7 86 -18 124 -25 67 -11 98 -19 294 -82 123 -39 259 -108 321
-164 69 -62 158 -198 196 -299 10 -27 40 -86 66 -130 52 -85 112 -253 124
-346 18 -138 73 -300 120 -349 13 -14 34 -46 47 -71 50 -99 69 -129 82 -129 8
0 17 -11 20 -25 7 -27 25 -31 57 -15 21 12 26 58 9 90 -6 12 -6 28 1 48 14 40
50 49 92 24 40 -23 47 -63 18 -102 -19 -26 -19 -29 -3 -43 24 -21 81 -26 117
-12 43 18 124 26 165 17 23 -5 46 -4 65 4 21 8 46 9 85 3 98 -16 204 -13 241
6 38 20 118 26 359 26 95 -1 167 4 188 11 23 9 38 9 50 2 17 -11 42 -6 109 23
38 16 56 16 70 2 17 -17 34 -1 27 25 -9 36 19 56 79 56 29 0 61 -6 72 -14 11
-7 35 -17 53 -21 17 -3 32 -12 32 -19 0 -38 107 -89 195 -92 28 -1 91 -11 140
-22 100 -22 142 -24 390 -19 64 1 88 -2 120 -19 40 -21 41 -21 85 -3 25 10 60
18 78 18 l32 1 0 853 0 853 -57 12 c-52 11 -64 18 -116 74 -59 64 -65 83 -43
138 12 29 -18 52 -72 58 -70 6 -69 23 3 78 100 77 117 69 114 -53 -1 -61 2
-88 12 -98 24 -23 111 -65 135 -65 l24 0 0 169 0 169 -30 6 c-39 7 -39 34 0
49 29 11 30 13 30 83 l0 72 -32 6 c-37 7 -98 41 -98 54 0 5 12 14 26 21 22 10
31 8 59 -9 18 -11 35 -20 39 -20 3 0 6 389 6 865 l0 865 -40 6 c-22 4 -48 13
-57 20 -17 13 -17 15 2 29 11 9 37 21 57 27 l38 11 0 74 0 73 -84 0 c-46 0
-118 7 -161 16 -64 13 -93 14 -178 5 -56 -6 -138 -11 -182 -10 -44 1 -177 1
-295 0 -217 -2 -272 4 -405 43 -97 28 -247 38 -615 42 -361 3 -444 3 -635 -3
-288 -8 -568 -6 -680 5 -60 6 -234 10 -385 9 -234 -2 -280 -4 -307 -19 -18 -9
-47 -19 -64 -23 -25 -6 -31 -4 -36 14 -4 17 -13 21 -43 21 -33 0 -39 -4 -49
-31 l-10 -30 -29 21 c-28 21 -43 22 -268 25 -145 2 -257 8 -284 16 -25 6 -65
11 -90 10 -56 -2 -166 17 -200 34 -14 8 -71 19 -128 26 -84 10 -106 16 -118
33 -25 37 -17 64 29 95 23 17 55 40 70 51 22 17 31 20 42 10 20 -16 35 -4 35
28 0 16 19 55 45 92 25 36 45 75 45 88 0 23 14 30 25 11 14 -22 53 -28 84 -13
17 9 31 19 31 23 0 5 12 21 26 36 14 15 24 21 23 14 -5 -28 13 -120 27 -133
24 -25 101 11 90 41 -9 22 16 27 33 5 21 -26 93 -62 125 -62 18 0 30 9 40 28
8 16 21 34 30 41 11 9 15 36 15 112 1 88 5 110 32 177 17 42 36 84 43 92 8 8
11 20 9 27 -2 7 7 15 21 18 14 3 37 7 51 10 17 4 27 0 35 -15 6 -11 20 -20 31
-20 14 0 21 -9 26 -30 3 -17 9 -33 14 -36 10 -6 80 37 108 67 20 22 32 21 37
-4 2 -7 15 -41 30 -77 27 -63 45 -163 44 -246 0 -39 22 -76 34 -56 2 4 12 51
20 103 18 111 50 222 70 238 7 6 16 30 19 54 6 42 61 158 97 204 26 33 50 24
50 -19 0 -18 3 -148 7 -288 4 -140 7 -327 5 -416 -2 -182 1 -192 66 -204 99
-18 122 13 122 163 0 122 26 426 44 513 8 38 17 98 21 134 7 58 12 69 47 105
36 36 41 38 53 22 6 -9 15 -48 19 -86 7 -83 24 -165 41 -206 7 -16 16 -46 20
-65 4 -19 15 -44 25 -55 9 -11 24 -33 31 -50 17 -35 39 -39 54 -9 36 72 67 72
99 2 13 -29 27 -61 30 -72 10 -28 33 -3 41 45 11 62 74 101 105 64 14 -17 57
-19 96 -5 24 10 31 7 64 -25 20 -19 40 -35 46 -35 15 0 74 102 74 128 0 25 56
54 87 46 12 -4 26 5 41 25 22 30 23 30 55 15 39 -19 63 -81 53 -141 -4 -25 -1
-48 9 -67 8 -15 15 -41 15 -57 0 -43 18 -44 36 -2 9 21 23 52 31 70 9 18 13
38 10 46 -3 8 0 23 7 32 12 17 15 16 52 -9 l39 -27 18 22 c9 12 17 29 17 39 0
12 16 26 43 39 53 26 55 26 76 0 16 -20 16 -20 39 11 25 33 42 113 42 199 0
29 5 71 11 92 14 44 63 108 75 96 5 -5 10 -55 12 -113 l4 -104 -33 -31 c-30
-28 -34 -37 -33 -82 0 -42 5 -54 27 -71 15 -12 27 -27 27 -32 0 -17 35 -44 57
-44 24 0 32 28 58 196 18 121 43 204 68 232 10 10 17 26 17 35 0 9 6 17 14 17
8 0 17 8 19 18 4 13 5 12 6 -5 0 -12 -3 -25 -9 -28 -5 -3 -10 -12 -10 -18 1
-7 25 15 54 48 54 59 54 59 90 48 30 -9 39 -8 51 4 8 8 15 18 15 23 0 5 8 16
17 26 17 17 18 14 30 -52 14 -81 16 -458 3 -559 -14 -105 -58 -396 -65 -431
-7 -29 12 -64 34 -64 30 0 53 111 66 315 9 138 17 195 26 190 5 -3 8 -63 7
-133 -1 -175 11 -342 28 -369 18 -29 88 -33 103 -5 10 20 35 284 33 357 -1 28
1 96 4 152 6 103 22 149 43 128 16 -16 34 -110 37 -185 2 -71 46 -207 84 -260
12 -16 40 -38 63 -49 l42 -18 31 29 c28 26 35 28 92 24 38 -2 68 -10 78 -20 8
-9 20 -14 25 -10 6 3 20 -1 33 -10 21 -13 26 -13 42 -1 28 21 88 19 108 -4 10
-11 15 -24 12 -29 -3 -6 6 -17 20 -27 15 -10 23 -22 20 -31 -4 -10 3 -14 28
-14 25 0 39 7 55 29 21 27 24 28 56 17 19 -7 43 -20 55 -31 15 -13 37 -18 85
-19 l65 -1 0 1917 0 1918 -591 0 -591 0 6 -44 c4 -24 2 -84 -5 -132 -6 -49
-14 -119 -18 -156 -4 -37 -12 -73 -19 -80 -16 -16 -26 -4 -14 19 5 11 4 70 -4
158 -7 77 -11 161 -7 188 l6 47 -3381 0 -3381 0 -1 -627 c-2 -631 -4 -761 -15
-841 -8 -51 -28 -52 -35 -1 -10 71 -60 23 -60 -58 0 -37 3 -43 22 -43 12 0 30
8 40 17 38 34 42 9 49 -310 7 -321 16 -444 31 -453 5 -4 24 7 41 24 26 24 97
64 199 110 3 2 8 -7 10 -19 3 -25 43 -41 78 -32 25 7 27 33 2 33 -10 0 -27 6
-37 14 -18 13 -15 15 36 39 34 15 60 22 69 17 31 -17 183 -9 245 12 39 13 82
20 124 19 34 -1 96 3 136 10 58 9 84 9 127 -1 29 -7 76 -15 103 -16 143 -8
200 -20 240 -47 45 -30 98 -36 197 -22 l57 8 22 -37 c12 -21 39 -49 61 -62 49
-31 56 -49 35 -86 -23 -41 -21 -57 9 -68 40 -16 52 -12 56 18 5 41 33 35 34
-7 1 -25 9 -41 30 -58 16 -12 34 -23 41 -23 19 0 83 -68 83 -89 0 -23 46 -81
64 -81 7 0 31 14 54 31 29 22 42 26 42 16 0 -27 24 -37 50 -22 14 8 44 24 67
35 23 11 51 32 62 46 11 14 25 23 30 20 8 -6 8 -141 -1 -241 -4 -44 25 -44 51
0 16 27 27 36 44 33 19 -3 22 -8 20 -42 -4 -63 30 -104 43 -51 3 14 19 34 35
46 16 11 29 24 29 29 0 5 -15 23 -32 39 -31 29 -32 32 -19 63 8 18 15 47 17
63 1 17 3 33 3 38 2 17 44 5 68 -19 26 -26 26 -27 18 -132 -10 -154 -10 -162
5 -215 14 -46 13 -51 -8 -87 -12 -22 -22 -52 -22 -68 0 -40 -11 -47 -32 -20
-16 22 -18 22 -35 5 -15 -14 -16 -21 -5 -37 16 -26 15 -50 -3 -74 -24 -31 -19
-66 8 -66 12 0 42 -14 67 -30 25 -16 53 -30 62 -30 10 0 23 -10 29 -22 7 -13
25 -38 40 -56 19 -22 29 -44 29 -65 0 -20 10 -47 25 -68 34 -45 15 -50 -56
-15 -28 14 -54 26 -59 26 -14 0 -23 -61 -11 -73 19 -19 12 -36 -30 -82 -30
-33 -49 -45 -70 -45 -36 0 -40 8 -23 48 12 29 16 32 33 22 17 -9 23 -6 38 16
24 38 26 217 1 222 -11 2 -18 -6 -23 -28 -9 -43 -37 -55 -91 -40 -52 15 -73
36 -80 81 -6 36 -3 41 61 94 25 21 28 26 15 35 -8 6 -25 9 -37 7 -36 -6 -50 8
-29 32 16 17 16 23 4 48 -12 26 -19 28 -83 34 -39 3 -83 13 -100 22 -16 9 -35
17 -41 17 -6 0 -17 6 -23 14 -16 19 4 26 42 15 21 -6 37 -2 64 14 l37 21 -57
14 c-56 14 -57 15 -57 49 0 26 -5 36 -20 40 -15 4 -20 15 -22 57 -3 43 -6 51
-23 51 -30 0 -43 12 -50 45 -8 37 -31 39 -39 4 -5 -20 -11 -24 -27 -19 -13 4
-28 0 -40 -11 -17 -15 -18 -19 -4 -34 21 -23 10 -70 -23 -95 -19 -14 -43 -20
-82 -20 -50 0 -61 5 -101 38 -26 20 -53 37 -62 37 -9 0 -19 5 -22 10 -3 6 -16
10 -29 10 -13 0 -37 13 -53 29 -17 15 -37 32 -45 37 -23 14 -70 94 -64 110 12
31 120 0 131 -38 8 -24 53 -58 77 -58 11 0 31 -9 45 -20 33 -26 43 -25 43 1 0
22 -54 81 -100 111 -15 9 -37 43 -54 84 -16 38 -35 75 -41 83 -8 8 -53 16
-125 21 -119 9 -153 22 -106 40 15 5 38 10 50 10 25 0 56 28 56 52 0 10 -22
20 -75 33 -67 15 -75 20 -75 41 0 31 -33 48 -79 39 -20 -3 -52 -7 -71 -8 -20
-2 -53 -11 -74 -21 -42 -20 -66 -14 -114 28 -22 20 -24 20 -33 3 -21 -36 -100
-14 -92 26 6 31 -9 41 -99 61 -43 10 -82 24 -88 31 -16 19 -70 26 -112 15 -21
-6 -55 -14 -75 -19 -48 -13 -113 -44 -113 -55 0 -4 11 -5 25 -2 33 8 53 -25
29 -48 -8 -9 -21 -16 -28 -16 -18 0 -96 -85 -96 -104 0 -25 12 -46 26 -46 8 0
17 -7 21 -16 8 -23 -57 -145 -88 -162 -14 -9 -33 -28 -42 -44 -12 -21 -24 -28
-47 -28 -25 0 -30 -4 -30 -24 0 -27 -51 -76 -79 -76 -29 0 -60 -28 -54 -50 5
-18 0 -20 -35 -20 -31 0 -47 7 -73 31 -33 31 -35 31 -113 26 -75 -5 -126 5
-126 25 0 4 -15 8 -32 7 -38 -1 -152 16 -168 26 -15 9 -12 36 7 58 15 16 17
34 15 109 -5 130 22 178 84 149 13 -6 35 -16 48 -22 13 -6 29 -22 35 -36 15
-33 31 -20 31 27 0 22 5 50 11 64 9 20 7 34 -15 81 -23 51 -29 57 -48 51 -45
-14 -53 -12 -53 14 0 20 5 25 25 26 14 0 36 5 50 11 14 6 58 14 98 18 39 4 72
11 72 15 0 5 -14 18 -30 30 -26 19 -35 20 -64 10 -41 -13 -60 -6 -75 26 -28
62 -2 83 62 50 l47 -23 11 41 c9 33 8 50 -5 86 -9 25 -16 53 -16 62 0 21 -47
77 -74 88 l-21 9 22 6 c26 8 47 54 46 104 0 35 -28 170 -37 178 -2 2 -14 5
-27 5 -53 3 -72 48 -48 117 9 26 8 35 -4 49 -18 20 -11 71 12 89 14 10 14 13
0 30 -9 10 -24 32 -33 50 -14 28 -14 33 -1 47 8 8 24 17 34 21 30 9 32 42 4
75 -14 17 -30 30 -36 30 -6 0 -19 7 -29 17 -17 16 -17 17 7 49 l25 33 -25 29
c-14 17 -25 40 -25 52 0 12 -8 35 -17 51 -15 25 -15 33 -5 50 8 12 11 33 7 49
-4 16 -2 37 3 47 5 10 12 35 16 55 6 35 5 37 -21 40 -22 2 -27 8 -25 23 16
100 14 126 -7 149 -20 21 -21 28 -12 63 12 44 39 80 74 98 17 8 21 18 19 42
-2 17 2 34 7 38 6 3 11 17 11 31 0 17 5 24 19 24 23 0 26 4 36 48 l7 32 -331
0 -330 0 0 -72 c0 -40 4 -100 9 -133 11 -75 22 -382 14 -411 -6 -22 -48 -38
-90 -35 -30 3 -38 -26 -16 -63 10 -17 22 -60 25 -95 4 -34 15 -82 26 -106 29
-66 44 -176 36 -264 -4 -42 -9 -98 -10 -126 -2 -27 -8 -78 -15 -112 -7 -35
-10 -84 -7 -110 6 -52 -9 -150 -25 -170 -6 -7 -7 -35 -4 -65 4 -29 10 -118 15
-198 12 -204 18 -237 44 -245 20 -6 20 -7 -10 -21 -30 -13 -33 -18 -33 -60 0
-32 -7 -56 -25 -82 -29 -42 -32 -82 -9 -117 14 -21 14 -26 0 -47 -16 -24 -17
-33 -18 -153 0 -131 3 -174 13 -181 6 -3 8 -22 4 -44 -4 -23 -2 -41 4 -45 6
-3 11 -29 11 -57 0 -28 5 -68 11 -89 9 -29 9 -53 -1 -101 -10 -50 -21 -265
-21 -428 0 -14 -1 -61 -2 -105 -2 -133 3 -216 14 -236 5 -11 12 -35 14 -54 3
-19 11 -51 18 -72 15 -43 5 -102 -27 -177 -14 -30 -16 -57 -12 -120 5 -83 5
-88 5 -153 -1 -21 2 -51 6 -68 5 -23 1 -39 -17 -65 -18 -27 -23 -47 -22 -86 3
-69 24 -106 72 -128 22 -10 44 -28 50 -39 49 -103 54 -119 48 -152 -4 -22 -17
-42 -32 -52 -56 -36 -67 -104 -35 -201 14 -41 18 -68 12 -92 -4 -19 -4 -69 1
-110 4 -41 8 -118 9 -170 0 -52 0 -112 0 -133 1 -42 -14 -87 -43 -129 -22 -32
-23 -61 -2 -79 19 -16 13 -71 -14 -127 -12 -25 -17 -54 -15 -87 2 -27 3 -75 2
-106 0 -30 6 -73 13 -95 25 -74 -2 -113 -52 -76 -27 21 -38 58 -21 75 18 18
13 58 -14 102 l-24 42 23 44 24 44 -20 39 c-16 32 -19 52 -15 100 3 34 1 69
-5 80 -6 11 -19 51 -29 90 -10 39 -25 89 -33 112 -12 33 -13 63 -5 171 8 125
6 190 -21 478 -5 55 -12 121 -16 147 -4 31 -1 64 9 95 8 26 20 84 27 128 10
69 9 86 -5 125 -19 55 -36 235 -40 430 -2 80 -6 161 -9 180 -3 19 0 78 7 131
7 56 9 113 5 140 -5 24 -5 51 -2 59 8 20 26 156 26 200 1 19 1 175 1 345 0
171 0 357 1 415 0 58 -3 319 -8 580 -4 261 -9 547 -11 635 -1 88 -8 239 -14
335 -6 96 -11 297 -10 445 2 197 -1 280 -11 309 -7 22 -10 57 -6 85 7 57 -6
86 -27 57 -20 -28 -30 -5 -28 63 2 72 7 88 31 94 27 7 34 46 20 111 l-11 56
-96 0 -95 0 6 -32 c12 -58 15 -173 4 -185 -11 -14 -3 -63 11 -63 15 0 0 -163
-16 -182 -13 -14 -13 -20 0 -45 13 -25 13 -36 -3 -97 -17 -65 -34 -91 -52 -80
-4 3 -8 11 -8 18 0 8 -7 19 -15 26 -8 7 -15 22 -15 34 0 12 -5 27 -12 34 -8 8
-9 12 -1 12 6 0 21 16 33 35 27 43 21 81 -15 97 -29 13 -31 21 -10 38 8 7 15
22 15 35 0 20 15 59 40 106 5 9 5 20 0 25 -4 5 -11 45 -15 90 -6 67 -4 82 9
93 34 28 19 41 -48 41 l-63 0 -8 -52 c-4 -29 -9 -188 -10 -353 -1 -165 -6
-312 -10 -327 -4 -17 -2 -29 7 -35 7 -4 22 -24 32 -44 18 -34 18 -38 2 -85 -9
-27 -15 -74 -14 -104 1 -40 -6 -74 -26 -125 -24 -60 -27 -79 -21 -134 4 -43 1
-87 -11 -137 -16 -75 -16 -120 5 -269 10 -79 10 -79 -19 -125 -37 -57 -37 -67
-4 -82 24 -11 25 -14 19 -70 l-7 -58 35 -15 c31 -13 35 -19 45 -72 6 -32 10
-68 9 -80 -1 -19 -3 -20 -21 -7 -27 18 -55 18 -62 -1 -7 -18 -63 -20 -65 -2
-1 6 -3 96 -4 198 -1 102 -5 191 -9 198 -5 7 -12 126 -17 264 -4 139 -13 358
-19 487 -12 252 -14 328 -24 715 -4 138 -9 265 -12 283 l-5 32 -1003 0 -1003
0 -17 -62 c-17 -62 -18 -62 -31 -38 -8 14 -17 42 -20 63 l-7 37 -118 0 c-103
0 -118 -2 -116 -16 2 -25 -24 -29 -31 -5 l-5 21 -674 0 -674 0 0 -1692z m9906
1534 c-3 -48 -5 -95 -5 -104 -1 -11 -6 -15 -16 -12 -10 4 -12 11 -6 21 5 10 1
33 -12 63 -22 53 -18 107 10 136 15 14 17 14 25 0 5 -9 7 -56 4 -104z m-8506
52 c0 -32 -4 -44 -15 -44 -19 0 -31 65 -15 85 19 23 30 8 30 -41z m3695 -47
c8 -17 7 -26 -6 -38 -15 -15 -16 -13 -17 23 -2 43 8 49 23 15z m-3418 -165 c6
-4 18 -35 25 -68 13 -53 13 -64 0 -92 -9 -17 -21 -33 -29 -36 -22 -9 -45 40
-47 101 -3 84 15 118 51 95z m143 -304 c0 -7 -5 -20 -10 -28 -9 -13 -12 -12
-25 4 -8 10 -12 23 -9 27 8 14 44 10 44 -3z m2222 -546 c7 -24 -9 -65 -22 -57
-5 3 -10 15 -10 25 0 10 -5 22 -10 25 -15 9 -2 25 19 25 10 0 21 -8 23 -18z
m7917 -116 c23 -22 28 -33 20 -42 -6 -7 -16 -11 -22 -9 -7 2 -24 6 -39 9 -32
7 -37 34 -16 78 11 23 14 24 19 10 4 -9 21 -30 38 -46z m-11429 -136 c0 -19
-7 -33 -19 -40 -49 -26 -70 6 -31 48 30 31 50 28 50 -8z m1260 1 c5 -11 12
-53 16 -94 4 -58 2 -76 -10 -86 -22 -18 -33 -7 -46 49 -12 51 -7 115 12 138
14 16 15 15 28 -7z m2184 -400 c7 -11 -20 -77 -35 -87 -16 -9 -29 17 -19 37 5
9 7 19 3 22 -8 9 17 37 33 37 7 0 15 -4 18 -9z m2401 -480 c-16 -15 -77 -18
-82 -3 -3 8 9 12 43 12 29 0 44 -4 39 -9z m995 -32 c0 -10 -4 -19 -10 -19 -5
0 -10 12 -10 26 0 14 4 23 10 19 6 -3 10 -15 10 -26z m-1141 -228 c14 -25 -2
-38 -56 -47 -36 -5 -41 -4 -46 17 -12 45 -9 49 43 49 38 0 52 -4 59 -19z
m5813 -73 c-10 -22 -11 -21 -11 12 -1 26 2 31 11 22 8 -8 8 -17 0 -34z m-5437
12 c10 -11 15 -23 12 -27 -8 -7 -47 25 -47 39 0 14 16 9 35 -12z m-480 -10 c3
-6 3 -19 0 -30 -9 -29 -92 -28 -129 1 -21 17 -25 24 -14 30 18 12 136 11 143
-1z m615 -69 c0 -5 -9 -11 -20 -14 -13 -3 -20 0 -20 9 0 8 9 14 20 14 11 0 20
-4 20 -9z m88 -10 c9 -5 39 -19 65 -32 78 -38 147 -86 147 -101 0 -4 -10 -10
-23 -13 -29 -8 -150 53 -190 95 -15 17 -32 30 -36 30 -5 0 -11 7 -15 15 -6 17
23 21 52 6z m3386 -145 c7 -27 -1 -56 -15 -56 -5 0 -9 18 -9 40 0 44 14 54 24
16z m-5165 -72 c-12 -15 -59 -20 -59 -6 0 10 52 30 63 24 4 -2 3 -10 -4 -18z
m2658 -256 c63 -57 93 -92 125 -147 53 -89 81 -161 63 -161 -24 0 -99 48 -110
71 -8 15 -31 45 -50 66 -19 21 -35 43 -35 49 0 15 -48 59 -56 51 -14 -14 7
-57 31 -63 18 -4 25 -13 25 -30 0 -30 -16 -31 -39 -3 -15 19 -21 20 -40 10
-14 -8 -21 -20 -19 -33 4 -25 -26 -48 -42 -32 -6 6 -14 40 -18 76 -9 76 4 127
35 139 12 4 24 17 28 28 11 34 50 26 102 -21z m-4397 -113 c0 -31 -3 -35 -25
-35 -21 0 -25 5 -25 28 0 33 7 42 32 42 14 0 18 -8 18 -35z m5577 -42 c1 -10
5 -31 9 -47 4 -19 2 -40 -9 -60 -8 -17 -18 -40 -22 -51 -6 -19 -7 -19 -16 -2
-6 10 -8 31 -4 47 3 16 8 42 10 59 3 27 21 71 28 71 2 0 3 -8 4 -17z m-2128
-118 c41 -15 95 -37 120 -51 25 -13 63 -27 83 -30 21 -4 43 -13 49 -20 6 -8
17 -14 25 -14 25 0 101 -59 172 -135 40 -41 75 -75 80 -75 4 0 15 -9 25 -20
11 -13 29 -20 52 -20 29 0 44 -10 94 -59 33 -33 87 -79 121 -103 34 -24 75
-53 92 -65 41 -30 50 -29 72 8 22 37 35 34 64 -19 22 -40 25 -42 60 -36 30 5
45 0 82 -25 54 -37 86 -39 143 -9 40 22 54 23 357 25 464 5 536 4 635 -7 211
-23 284 -26 346 -17 87 12 142 9 155 -8 15 -20 18 -19 63 10 l39 24 479 -4
c264 -2 490 -6 504 -9 13 -3 132 -8 264 -11 132 -2 393 -9 580 -15 187 -6 468
-13 623 -15 260 -5 286 -7 308 -24 l24 -19 -32 -21 -33 -20 32 -7 c17 -3 40
-14 50 -23 21 -20 81 -51 98 -51 18 0 53 42 60 72 7 29 34 42 111 54 79 12
159 -51 190 -149 16 -53 16 -53 -10 -113 -15 -32 -31 -66 -35 -74 -10 -20 -81
-26 -92 -8 -12 19 -11 63 3 93 21 47 -7 81 -87 101 -37 9 -47 -28 -29 -107 18
-78 14 -91 -28 -87 -24 2 -34 9 -36 23 -5 27 -58 81 -96 98 -29 12 -51 13
-162 9 -25 -1 -55 -12 -78 -27 -24 -16 -52 -25 -83 -27 -61 -2 -241 19 -313
38 -30 8 -85 14 -123 14 -37 0 -77 4 -87 10 -10 5 -100 11 -201 14 -156 3
-188 1 -211 -12 -24 -14 -34 -15 -75 -3 -76 21 -133 31 -206 36 -38 3 -88 13
-113 24 -52 23 -157 27 -174 6 -12 -15 -120 -18 -120 -4 0 18 -44 30 -147 38
-104 8 -197 -1 -230 -22 -7 -5 -18 -5 -23 -2 -6 4 -26 1 -45 -5 -27 -9 -40
-22 -56 -57 -14 -31 -17 -49 -10 -56 12 -12 183 -28 226 -21 29 5 29 5 11 -10
-15 -12 -44 -16 -127 -16 -59 0 -110 4 -114 9 -3 5 -22 15 -43 22 -20 6 -67
29 -104 50 -72 42 -99 47 -118 24 -16 -20 -29 -19 -53 3 -16 15 -40 17 -168
17 -105 0 -152 4 -160 13 -18 17 -49 15 -49 -3 0 -19 -39 -55 -59 -55 -9 0
-27 12 -40 26 -19 19 -31 24 -51 20 -17 -3 -39 3 -60 16 -26 15 -45 19 -77 15
-24 -2 -61 -1 -82 4 -20 4 -102 10 -182 12 -109 3 -152 0 -178 -11 -31 -12
-43 -12 -102 3 -37 9 -87 16 -111 16 -195 0 -275 7 -348 34 -56 20 -103 28
-187 33 -96 6 -116 10 -144 31 -32 24 -35 24 -102 13 -37 -7 -80 -18 -95 -26
-15 -7 -43 -16 -63 -20 -25 -4 -52 -22 -90 -61 -53 -54 -55 -55 -114 -55 -33
0 -87 -5 -120 -10 l-60 -10 -40 39 c-50 49 -87 67 -171 87 -71 16 -377 27
-369 13 8 -12 -14 -22 -33 -14 -14 5 -14 7 -2 15 22 14 -35 13 -85 -2 l-40
-11 28 -11 c15 -5 27 -13 27 -16 0 -11 -93 -33 -145 -34 -49 -1 -50 -2 -55
-36 -4 -27 -12 -39 -39 -52 -47 -23 -54 -33 -53 -67 1 -28 -2 -30 -51 -36 -36
-5 -66 -2 -97 9 -25 9 -61 16 -80 16 -49 2 -141 32 -153 51 -14 23 19 119 69
201 22 34 80 103 130 153 50 49 101 107 114 129 20 33 22 43 12 70 -7 18 -12
53 -12 78 0 32 -6 50 -20 63 -24 22 -25 36 -5 112 10 38 23 63 37 73 12 8 42
30 67 49 30 23 57 34 85 36 23 2 91 11 151 20 236 36 244 36 374 -10z m884 25
c-20 -23 -33 -26 -33 -6 0 13 13 20 42 25 4 0 0 -8 -9 -19z m452 -120 c10 -16
-15 -80 -31 -80 -8 0 -28 7 -44 15 -37 19 -31 38 18 59 45 18 49 19 57 6z
m-70 -126 c0 -23 -39 -31 -61 -14 -26 22 -16 37 24 35 29 -2 37 -7 37 -21z
m-3815 -389 c0 -31 -44 -63 -68 -49 -51 32 -34 74 29 74 35 0 39 -3 39 -25z
m8946 -200 l29 -25 -28 0 c-35 0 -48 -28 -21 -47 16 -12 17 -15 4 -23 -19 -12
-27 -12 -35 0 -3 6 -23 10 -43 10 -20 0 -42 4 -48 8 -15 10 2 72 20 72 7 0 19
7 26 15 19 23 63 18 96 -10z m-6606 -130 c0 -16 -18 -22 -90 -29 -25 -2 -57
-7 -72 -11 -34 -9 -38 9 -5 26 51 28 167 38 167 14z m2665 -5 c3 -5 -3 -10
-15 -10 -12 0 -18 5 -15 10 3 6 10 10 15 10 5 0 12 -4 15 -10z m-931 -45 c15
-23 15 -26 1 -31 -23 -9 -45 3 -45 24 0 39 21 42 44 7z m-1002 -4 c38 -15 98
-153 128 -296 29 -139 59 -213 101 -247 61 -49 198 -75 312 -59 103 14 103 13
89 -141 -6 -68 -14 -163 -18 -213 -3 -49 -12 -118 -20 -153 -8 -35 -14 -75
-14 -89 0 -14 -13 -53 -29 -87 -78 -167 -96 -213 -120 -303 -7 -25 -46 -89
-97 -157 -73 -98 -90 -116 -113 -116 -15 0 -32 5 -39 12 -10 10 -19 8 -42 -5
-28 -17 -31 -17 -57 -1 -16 10 -38 27 -51 38 -19 17 -34 20 -85 18 -34 -2 -71
-2 -82 -2 -11 1 -111 1 -223 1 -142 -1 -209 2 -225 11 -12 6 -44 15 -72 20
-102 15 -219 47 -244 66 -14 10 -30 32 -36 48 -12 39 -12 39 -28 25 -17 -13
-47 -5 -47 14 0 8 20 13 61 14 70 2 115 21 131 56 14 31 5 53 -24 57 -14 2
-28 15 -37 33 -8 17 -20 33 -26 37 -7 4 -29 41 -49 81 -20 41 -44 81 -54 90
-22 20 -138 32 -215 23 -47 -6 -56 -11 -59 -29 -3 -24 -25 -32 -48 -17 -11 7
-15 31 -16 97 -1 84 -21 180 -43 206 -5 7 -13 44 -17 82 -4 39 -17 97 -29 130
-62 164 -88 339 -82 540 l2 90 33 3 c18 2 63 -2 100 -8 37 -7 87 -15 112 -19
25 -4 61 -15 81 -23 34 -15 37 -20 43 -70 24 -189 61 -276 149 -351 l53 -46
147 -9 c176 -10 263 -2 337 31 76 34 119 82 180 201 29 55 56 106 61 112 18
22 49 128 49 164 0 44 21 99 47 122 27 24 87 34 125 19z m1738 -39 c-27 -4
-32 1 -24 21 5 14 8 14 25 -1 20 -17 20 -17 -1 -20z m1384 23 c-7 -16 -14 -18
-38 -9 -26 10 -18 24 14 24 22 0 28 -4 24 -15z m-6584 -315 c96 -13 130 -31
109 -56 -5 -7 -11 -39 -13 -72 -2 -34 -7 -65 -10 -70 -8 -13 -62 -20 -187 -24
-107 -3 -139 -13 -139 -45 0 -8 13 -22 30 -31 24 -13 30 -24 30 -49 0 -31 -2
-33 -34 -33 -29 0 -36 5 -51 36 -9 20 -28 39 -43 45 -15 6 -45 19 -67 29 -22
10 -52 23 -67 29 -19 7 -30 22 -39 51 -12 41 -63 95 -79 85 -5 -3 -26 2 -47
11 -21 10 -42 16 -47 15 -5 -1 -17 6 -27 15 -18 16 -17 17 18 35 20 10 60 22
87 25 28 4 59 10 70 14 31 11 404 3 506 -10z m-491 -326 c12 -11 12 -16 1 -28
-18 -22 -32 -20 -79 11 -26 17 -37 29 -30 34 17 10 92 -1 108 -17z m-2647
-441 c8 -10 18 -33 22 -52 6 -32 2 -38 -40 -78 -53 -49 -80 -53 -130 -22 -89
54 -30 169 86 169 32 0 52 -5 62 -17z m5007 -30 c0 -36 -3 -43 -9 -28 -12 28
-12 75 0 75 6 0 10 -21 9 -47z m61 -220 c11 -30 20 -63 20 -74 0 -11 7 -22 15
-25 8 -3 19 -22 26 -42 15 -44 68 -130 99 -157 23 -21 70 -105 70 -126 0 -7
-7 -17 -16 -23 -18 -13 -10 -64 11 -72 7 -3 10 -14 7 -26 -3 -13 1 -24 12 -30
12 -7 14 -14 6 -28 -15 -28 -12 -76 5 -90 8 -7 15 -21 15 -32 0 -10 8 -21 18
-25 24 -8 62 -44 62 -59 0 -6 29 -30 63 -53 35 -23 75 -58 88 -79 16 -23 31
-36 42 -34 17 3 16 0 -2 -36 -11 -22 -17 -42 -14 -46 4 -3 -2 -12 -13 -20 -18
-13 -18 -16 -2 -49 15 -32 15 -35 0 -51 -16 -16 -16 -18 2 -31 10 -8 15 -19
11 -25 -5 -9 -1 -10 13 -6 15 5 22 1 27 -15 5 -14 2 -25 -6 -30 -23 -14 -69
-10 -75 6 -7 17 -64 21 -64 5 0 -18 -47 -11 -52 8 -4 14 -17 18 -71 20 -60 1
-70 5 -121 43 -30 23 -62 52 -71 65 -8 13 -34 33 -58 45 -119 60 -161 172
-137 361 15 112 16 138 24 483 3 149 8 286 12 305 5 33 7 34 20 15 8 -10 23
-43 34 -72z m-2851 -78 c35 -9 67 -18 72 -21 10 -6 -31 -43 -68 -63 -13 -6
-20 -17 -17 -25 9 -23 -116 -27 -138 -4 -16 15 -56 26 -98 27 -8 0 -37 5 -65
10 -58 11 -143 4 -165 -14 -28 -24 -100 -40 -121 -27 -21 14 -202 15 -234 3
-11 -5 -29 -4 -40 2 -25 14 -210 10 -237 -4 -25 -13 -121 7 -115 25 4 12 79
25 177 30 108 6 234 18 245 25 47 28 113 38 223 34 157 -5 362 0 427 11 46 8
94 5 154 -9z m145 -24 c8 -13 -3 -19 -24 -14 -11 3 -17 9 -14 14 7 11 31 12
38 0z m4449 -722 c4 -33 10 -135 13 -227 6 -149 4 -179 -16 -283 -19 -95 -21
-128 -14 -185 9 -67 10 -69 44 -81 27 -9 30 -12 12 -12 -12 -1 -33 -8 -45 -15
-12 -8 -51 -20 -87 -26 -139 -23 -152 -30 -228 -111 -80 -85 -184 -147 -264
-156 -42 -5 -54 -13 -99 -60 -28 -30 -57 -52 -64 -49 -8 3 -15 34 -20 80 -3
41 -12 80 -20 86 -7 6 -39 9 -71 8 -58 -3 -59 -2 -62 24 -3 27 -3 28 42 22
l46 -7 0 46 c0 28 6 52 16 61 17 18 59 22 49 5 -9 -14 24 -49 47 -49 10 0 35
-8 56 -19 37 -18 62 -18 62 1 0 5 9 21 20 35 33 43 35 85 6 131 -14 22 -30 43
-36 47 -8 5 -5 11 6 20 17 12 17 14 0 49 -12 26 -23 36 -39 36 -13 0 -40 9
-61 19 -29 15 -42 17 -56 9 -25 -16 -52 -3 -48 24 2 17 11 24 31 26 22 3 27 7
22 23 -5 13 4 28 28 51 47 45 98 158 83 184 -6 10 -16 34 -22 52 -11 30 -9 35
16 62 29 31 58 38 77 19 17 -17 37 -1 22 17 -17 21 12 40 81 55 128 27 216 51
237 65 12 8 33 14 45 14 13 0 37 8 53 17 130 71 130 71 138 -8z m-3020 -126
c-16 -6 -17 -39 -2 -48 6 -4 17 1 24 11 14 18 14 18 15 -3 0 -14 -6 -23 -15
-23 -8 0 -15 -6 -15 -13 0 -8 -8 -21 -19 -31 -23 -21 -36 -8 -46 46 -6 33 -4
37 22 51 15 8 33 15 38 15 6 0 4 -2 -2 -5z m1937 -318 c0 -19 -15 -26 -35 -19
-15 6 -15 8 1 25 18 20 34 17 34 -6z m1294 -204 c-10 -33 -30 -67 -47 -83 -27
-26 -54 -38 -44 -20 3 4 23 37 46 74 22 37 44 80 48 95 6 22 8 24 11 9 2 -10
-4 -44 -14 -75z m-6114 -405 c0 -2 3 -11 6 -20 4 -11 0 -16 -14 -16 -23 0 -36
15 -27 30 6 10 35 14 35 6z m460 -81 c0 -18 -5 -25 -19 -25 -11 0 -23 5 -26
10 -11 18 3 40 25 40 15 0 20 -7 20 -25z m4628 -49 c4 -17 -1 -18 -36 -13 -32
4 -45 1 -58 -14 -9 -10 -21 -19 -26 -19 -15 0 -8 23 14 47 29 31 101 30 106
-1z m-4728 -379 c38 -33 80 -99 80 -126 -1 -38 -79 -100 -136 -107 -69 -9
-124 58 -124 150 0 60 6 73 49 102 44 30 81 25 131 -19z m9689 -166 c19 -12 6
-41 -18 -41 -24 0 -33 13 -25 34 7 18 22 20 43 7z m-289 -21 c0 -5 -9 -10 -20
-10 -11 0 -20 5 -20 10 0 6 9 10 20 10 11 0 20 -4 20 -10z m-90 -12 c-1 -7
-15 -22 -33 -34 l-33 -20 -49 22 c-54 23 -55 22 20 37 45 10 95 7 95 -5z
m-4348 -142 c4 -6 5 -25 2 -42 -5 -26 -1 -34 30 -58 67 -51 80 -106 36 -154
-58 -62 -172 17 -155 107 4 20 8 54 9 77 3 73 49 113 78 70z m98 -366 c0 -11
-4 -20 -10 -20 -5 0 -10 9 -10 20 0 11 5 20 10 20 6 0 10 -9 10 -20z m-88 -4
c16 -12 17 -16 3 -43 -17 -34 -52 -69 -61 -61 -3 4 -18 2 -34 -2 -16 -5 -39
-6 -50 -3 -18 5 -21 12 -18 47 3 39 5 41 34 41 18 1 38 6 45 12 12 9 34 17 59
22 3 0 13 -6 22 -13z m61 -696 c-1 -14 -3 -34 -5 -44 -2 -13 5 -22 27 -29 82
-27 95 -96 30 -161 -32 -32 -137 -10 -149 31 -19 69 -18 80 15 112 29 30 30
33 18 63 -11 27 -10 32 7 45 29 22 59 13 57 -17z m133 -319 c-10 -16 -36 -13
-43 5 -8 22 18 37 36 20 7 -8 10 -19 7 -25z m-238 -53 c-3 -7 -11 -13 -18 -13
-7 0 -15 6 -17 13 -3 7 4 12 17 12 13 0 20 -5 18 -12z m201 -653 c23 -25 41
-55 41 -67 0 -35 -61 -98 -95 -98 -43 0 -92 35 -99 71 -10 50 -8 57 30 99 48
52 71 52 123 -5z m-44 -234 c3 -5 1 -13 -5 -16 -15 -9 -43 3 -35 15 8 13 32
13 40 1z m-1080 -1890 c3 -5 1 -12 -4 -15 -12 -8 -41 3 -41 15 0 12 37 12 45
0z"/>
<path d="M6880 8225 c0 -8 15 -32 33 -52 51 -58 52 -69 11 -119 -46 -56 -83
-78 -163 -98 -66 -17 -110 -44 -169 -105 -38 -39 -52 -69 -52 -110 0 -47 20
-55 97 -41 112 20 206 39 243 50 47 13 223 13 293 -1 48 -10 65 -9 117 7 71
22 79 39 15 31 -28 -4 -61 -1 -88 7 -23 8 -59 18 -79 21 -44 8 -46 15 -17 41
19 17 40 19 184 22 150 3 167 2 205 -18 39 -20 41 -22 27 -43 -8 -12 -25 -24
-38 -27 -21 -5 -18 -9 32 -37 98 -57 159 -44 159 34 0 54 -27 82 -123 129 -49
24 -104 57 -123 74 -34 29 -44 33 -116 45 -32 5 -38 10 -38 30 0 13 -9 40 -21
59 -31 52 -103 74 -202 59 -68 -10 -74 -9 -114 14 -24 13 -43 28 -43 33 0 6
-7 10 -15 10 -8 0 -15 -7 -15 -15z"/>
<path d="M6978 7630 c-12 -7 -18 -24 -18 -48 0 -79 55 -109 179 -98 100 9 136
21 162 57 27 38 22 71 -12 80 -50 13 -293 20 -311 9z"/>
<path d="M6997 2814 c-3 -3 -3 -12 0 -20 6 -17 39 -19 49 -3 11 18 -33 39 -49
23z"/>
<path d="M5375 13180 c-8 -13 13 -40 30 -40 18 0 28 32 13 42 -18 11 -36 10
-43 -2z"/>
<path d="M5240 12600 c0 -5 7 -10 15 -10 8 0 15 5 15 10 0 6 -7 10 -15 10 -8
0 -15 -4 -15 -10z"/>
<path d="M5406 12478 c-19 -27 -20 -42 -3 -57 24 -20 51 10 42 47 -8 38 -18
40 -39 10z"/>
<path d="M5425 12170 c-9 -14 4 -52 16 -45 12 8 12 55 0 55 -6 0 -13 -5 -16
-10z"/>
<path d="M5374 11873 c-3 -16 -10 -40 -15 -54 -6 -14 -11 -39 -11 -55 -1 -37
38 -128 52 -119 11 7 14 212 4 239 -9 24 -23 19 -30 -11z"/>
<path d="M5705 11159 c-26 -31 -30 -69 -9 -76 9 -3 74 85 74 101 0 18 -42 2
-65 -25z"/>
<path d="M5530 10941 c-17 -32 -12 -59 18 -93 l29 -31 19 31 c10 18 22 32 27
32 4 0 7 12 5 28 -2 21 -8 26 -24 24 -12 -1 -27 4 -34 13 -17 20 -27 19 -40
-4z"/>
<path d="M5250 10817 c0 -16 32 -47 48 -47 18 0 15 13 -8 38 -23 25 -40 28
-40 9z"/>
<path d="M7402 10609 c2 -7 10 -15 17 -17 8 -3 12 1 9 9 -2 7 -10 15 -17 17
-8 3 -12 -1 -9 -9z"/>
<path d="M11910 10536 c0 -25 12 -46 25 -46 7 0 16 7 19 16 12 31 6 44 -19 44
-15 0 -25 -6 -25 -14z"/>
<path d="M1470 9461 c-44 -5 -50 -7 -30 -13 35 -11 156 -10 145 1 -16 14 -56
18 -115 12z"/>
<path d="M2780 9321 c-19 -4 -45 -13 -57 -19 -12 -7 -42 -12 -66 -12 -27 0
-61 -9 -89 -24 -38 -20 -46 -22 -54 -9 -8 13 -14 13 -47 0 -46 -20 -47 -33 -1
-54 34 -17 36 -17 50 2 8 10 14 14 14 8 0 -18 101 -21 165 -5 56 14 63 14 98
-3 24 -11 36 -23 35 -34 -2 -11 4 -16 22 -16 16 0 24 5 22 14 -1 7 6 37 18 67
20 54 20 54 0 74 -20 20 -48 23 -110 11z"/>
<path d="M1342 9205 c-42 -18 -39 -41 8 -68 29 -16 40 -17 70 -8 19 6 46 19
59 29 l23 19 -36 21 c-43 25 -77 27 -124 7z"/>
<path d="M5381 8716 c-44 -48 -51 -60 -51 -95 0 -41 12 -53 27 -27 13 22 49
36 91 36 36 0 42 4 61 40 19 37 19 44 -1 41 -5 0 -8 3 -8 9 0 13 -41 50 -55
50 -7 0 -35 -24 -64 -54z"/>
<path d="M3608 8072 c-21 -4 -24 -18 -5 -25 25 -9 62 -2 62 13 0 15 -23 20
-57 12z"/>
<path d="M3950 7861 c0 -42 15 -46 16 -5 1 19 -3 34 -7 34 -5 0 -9 -13 -9 -29z"/>
<path d="M3970 7780 c0 -4 -12 -11 -26 -14 -14 -4 -24 -12 -21 -19 4 -13 84
-30 98 -21 18 11 8 33 -21 48 -16 8 -30 11 -30 6z"/>
<path d="M3978 7612 c-49 -19 -48 -32 1 -32 27 0 41 5 45 17 10 26 -6 31 -46
15z"/>
<path d="M7820 6800 c0 -10 69 -60 84 -60 11 0 38 -26 103 -95 81 -86 103
-102 204 -153 57 -29 110 -52 117 -52 42 0 -24 76 -123 142 -24 16 -46 35 -49
43 -5 14 -84 55 -105 55 -15 0 -14 13 1 28 16 16 -5 32 -41 32 -13 0 -38 11
-55 23 -50 38 -136 61 -136 37z"/>
<path d="M4775 5760 c-8 -13 53 -104 104 -154 45 -44 129 -74 138 -49 6 17 -7
30 -141 148 -73 64 -90 73 -101 55z"/>
<path d="M2847 5343 c-4 -3 -7 -13 -7 -22 0 -9 -14 -36 -31 -61 -24 -35 -29
-52 -24 -75 17 -87 23 -156 16 -217 -8 -73 -3 -88 41 -130 15 -14 28 -35 28
-46 0 -11 11 -27 24 -35 13 -9 27 -28 30 -43 8 -31 54 -100 85 -128 17 -16 21
-30 20 -70 -2 -43 4 -60 35 -109 21 -32 44 -61 51 -63 8 -3 34 -34 59 -68 44
-59 86 -99 181 -172 65 -49 99 -64 150 -64 84 0 70 -60 -27 -117 -51 -30 -66
-33 -160 -39 -133 -7 -195 -25 -233 -65 -17 -17 -47 -40 -67 -50 -44 -22 -46
-31 -16 -51 12 -8 18 -19 14 -26 -15 -25 -166 -5 -166 22 0 5 9 20 21 32 l21
22 -41 26 c-22 14 -47 26 -56 26 -18 0 -20 -36 -2 -47 7 -4 18 -30 25 -58 l11
-50 -50 -48 c-65 -62 -77 -92 -89 -232 -15 -176 -2 -204 117 -240 26 -8 56
-15 67 -15 10 0 42 -17 70 -37 30 -22 64 -37 84 -38 39 -3 49 -11 54 -45 3
-22 8 -25 45 -26 46 -2 78 -22 114 -72 64 -89 54 -82 125 -78 75 4 91 15 100
63 5 25 15 40 37 52 16 9 41 26 56 37 33 27 86 40 96 23 4 -6 3 -14 -2 -18 -6
-3 -24 -35 -41 -71 -22 -45 -42 -72 -67 -88 -19 -12 -35 -30 -35 -40 0 -9 -9
-32 -20 -50 -11 -18 -20 -46 -20 -62 0 -17 -9 -39 -20 -50 -15 -15 -20 -33
-20 -75 0 -59 -19 -101 -61 -133 -36 -27 -56 -33 -85 -21 -20 7 -32 6 -50 -6
-13 -8 -37 -15 -54 -15 -24 0 -35 -8 -56 -39 -14 -22 -36 -42 -49 -45 -45 -12
-103 -83 -96 -120 1 -5 -5 -17 -14 -27 -25 -27 -14 -49 30 -65 54 -19 89 -3
81 38 -9 44 36 76 63 44 13 -16 5 -42 -15 -50 -9 -3 -14 -14 -13 -23 4 -41 -3
-54 -41 -73 -21 -11 -47 -20 -56 -20 -10 0 -26 -7 -36 -17 -16 -14 -20 -14
-35 -2 -25 20 -87 41 -105 34 -19 -8 -49 27 -57 67 -5 24 -13 33 -26 33 -11 1
-25 4 -32 8 -6 4 -15 2 -19 -5 -9 -14 -10 -256 -1 -265 4 -3 13 -1 20 6 8 6
36 10 63 9 74 -3 155 20 180 49 18 21 27 24 49 19 25 -6 26 -8 11 -25 -30 -33
-10 -66 22 -37 11 9 23 12 31 7 23 -14 222 -2 286 18 33 11 74 17 90 14 17 -2
45 2 64 10 24 10 45 12 80 5 25 -5 60 -6 77 -3 24 4 33 1 38 -11 20 -53 -16
-143 -68 -168 -19 -9 -39 -16 -45 -16 -6 0 -17 -13 -26 -29 -20 -40 -53 -61
-93 -61 -18 0 -72 -18 -119 -40 -68 -33 -87 -46 -96 -71 -7 -17 -21 -32 -34
-35 -31 -8 -56 -40 -50 -63 7 -27 -20 -35 -49 -16 -29 19 -54 19 -54 1 0 -28
-27 -39 -65 -26 -59 20 -175 -19 -175 -58 -1 -9 -9 -35 -20 -57 -11 -22 -19
-44 -20 -48 0 -4 -7 -19 -16 -33 -15 -22 -18 -23 -28 -8 -20 26 -86 33 -411
41 -390 10 -616 8 -870 -6 -110 -6 -344 -15 -520 -21 -176 -5 -329 -12 -339
-14 -11 -3 -105 1 -210 9 -115 9 -234 12 -298 8 l-108 -6 0 -599 0 -598 1380
0 c1021 0 1380 3 1380 11 0 7 -9 26 -19 43 -26 42 -51 130 -44 156 3 12 -1 28
-10 38 -47 52 -27 178 55 335 6 12 6 23 -1 31 -13 16 -25 117 -18 148 6 23 9
24 79 20 40 -2 79 -9 86 -14 20 -17 14 -57 -11 -81 -13 -12 -30 -33 -37 -47
-7 -13 -24 -33 -37 -43 -12 -10 -23 -23 -23 -29 0 -6 -7 -19 -15 -29 -18 -19
-10 -73 9 -66 6 3 68 42 138 88 69 46 146 96 170 112 24 15 57 37 75 50 72 51
151 94 190 106 25 7 58 27 78 48 27 27 44 36 77 39 144 13 261 26 273 31 11 4
15 -3 15 -27 0 -27 -10 -42 -52 -81 -29 -27 -78 -61 -108 -75 -30 -14 -75 -46
-100 -70 -64 -63 -180 -154 -196 -154 -7 0 -16 5 -19 10 -8 13 -113 13 -193
-1 -102 -18 -251 -106 -225 -133 13 -12 62 -6 137 19 84 27 123 30 176 11 32
-12 35 -16 32 -48 -3 -29 2 -40 28 -61 69 -59 191 -61 238 -4 12 14 8 19 -25
40 -73 46 -80 77 -18 77 24 0 45 -9 67 -29 l33 -30 -17 -33 c-15 -27 -16 -40
-7 -73 6 -22 13 -57 16 -77 4 -32 2 -39 -17 -46 -44 -16 -236 26 -335 74 -115
55 -187 68 -203 36 -5 -9 -12 -33 -16 -54 -6 -33 -4 -38 26 -56 18 -11 67 -30
108 -42 41 -12 98 -31 125 -41 28 -10 92 -32 144 -49 l94 -30 773 0 c425 0
774 3 776 8 2 4 19 19 39 34 24 18 40 24 50 17 22 -14 29 -11 29 11 0 12 8 32
17 46 20 31 12 38 -55 55 -23 6 -45 15 -48 20 -7 12 -121 11 -129 -1 -8 -13
-55 -13 -55 0 0 6 17 17 38 26 42 16 65 53 78 119 8 44 27 54 64 31 38 -22 70
-21 70 2 0 24 -19 42 -47 42 -12 0 -26 8 -32 18 -8 14 -12 15 -22 4 -15 -14
-49 -16 -49 -3 0 28 30 39 92 34 80 -7 98 8 71 56 -21 36 -40 46 -58 31 -10
-8 -15 -6 -20 9 -9 30 -19 26 -30 -11 -8 -26 -15 -33 -35 -33 -24 0 -25 3 -24
50 1 28 3 61 5 75 1 14 -1 42 -5 63 -8 34 -6 37 13 37 27 0 81 27 81 40 0 6
15 10 33 10 44 0 62 -30 47 -80 -26 -89 1 -108 91 -64 33 15 59 34 59 41 0 8
-15 20 -34 28 -52 22 -53 42 -3 55 23 5 56 14 72 19 17 5 47 10 69 9 43 0 60
11 50 36 -5 12 -14 15 -38 11 -76 -13 -136 -12 -148 2 -7 9 -21 19 -33 23 -17
8 -17 9 -2 9 24 1 67 30 67 46 0 7 9 19 20 26 21 14 21 15 -15 88 l-37 75 24
18 c13 10 31 20 41 24 12 4 17 16 17 40 0 26 -4 33 -17 31 -10 -1 -19 3 -20 8
-2 6 3 10 10 10 13 0 25 21 26 48 1 11 -7 17 -23 17 -13 0 -30 9 -38 21 -8 13
-24 21 -41 21 -15 1 -30 4 -33 9 -7 13 -61 11 -69 -2 -5 -7 -14 -4 -26 7 -18
16 -18 19 -3 35 11 13 30 18 64 17 45 0 50 -2 59 -29 5 -16 14 -29 20 -29 18
0 22 19 9 39 -11 17 -10 23 4 37 14 14 23 15 59 6 24 -6 45 -9 48 -6 9 8 -41
52 -54 47 -20 -7 -42 44 -48 114 -4 45 -1 65 8 73 11 9 9 16 -10 35 -28 31
-62 31 -98 1 l-29 -23 26 -21 c32 -25 33 -39 1 -72 -13 -14 -29 -43 -34 -65
-8 -34 -9 -36 -10 -12 -1 22 -8 30 -30 38 -53 19 -62 81 -17 119 23 18 20 27
-14 34 -33 6 -40 31 -14 51 26 18 9 57 -23 53 -23 -3 -25 0 -27 45 -2 44 0 48
24 54 14 3 31 10 38 16 7 5 52 12 101 16 49 3 92 9 96 12 13 13 -7 59 -26 59
-12 0 -16 -5 -13 -14 7 -17 -57 -30 -121 -24 -39 3 -40 4 -42 41 -2 30 3 40
22 53 24 15 27 39 13 92 -2 7 8 18 22 25 20 10 24 19 21 42 -1 17 -7 38 -12
47 -5 9 -9 33 -9 52 0 37 -8 43 -38 27 -9 -5 -24 -12 -34 -15 -9 -2 -22 -17
-30 -33 -11 -24 -19 -28 -53 -28 -30 0 -48 -7 -70 -28 -37 -34 -62 -42 -80
-27 -18 15 -19 48 -4 87 10 28 83 103 100 103 5 0 9 6 9 13 0 7 19 24 41 37
23 12 51 32 61 42 18 18 18 21 3 38 -15 17 -14 19 9 38 34 27 33 45 -5 59 -27
11 -31 16 -26 40 3 15 -2 41 -10 57 -14 27 -14 31 3 43 10 7 29 13 42 13 20 0
23 4 20 27 -2 19 -10 29 -28 34 -25 6 -24 6 5 10 24 3 29 8 27 24 -6 35 -6 59
2 88 8 26 7 27 -30 27 l-38 0 26 28 c37 39 42 92 8 92 -11 0 -20 5 -20 11 0 6
7 8 15 5 25 -9 29 21 6 50 l-21 27 35 43 c19 23 35 51 35 61 0 11 5 24 11 30
25 25 0 61 -68 98 -38 21 -77 48 -88 60 -11 12 -35 30 -52 39 -19 9 -33 24
-33 35 0 25 -32 51 -63 51 -22 0 -27 5 -27 23 0 13 -11 34 -25 47 -14 13 -24
28 -23 34 5 26 -16 57 -53 78 -25 14 -39 29 -40 42 0 29 -55 72 -73 57 -10 -9
-17 -4 -29 21 -11 22 -13 36 -6 44 12 15 5 19 -43 28 -33 6 -38 10 -38 34 0
16 -5 33 -12 40 -9 9 -8 12 5 12 17 0 24 25 9 34 -15 9 -31 -9 -52 -58 -21
-46 -22 -47 -41 -31 -14 13 -16 22 -9 36 14 25 -18 42 -57 30 -35 -12 -141
-26 -167 -23 -10 1 -29 13 -41 26 -13 14 -40 27 -66 31 -57 10 -84 29 -84 62
0 15 -8 30 -20 37 -11 6 -31 19 -44 29 -13 9 -37 17 -53 17 -43 0 -65 16 -88
60 -11 22 -31 47 -45 56 -14 9 -25 23 -25 30 0 8 -11 19 -24 26 -25 11 -86 93
-109 146 -6 15 -11 40 -12 57 0 22 -8 34 -32 50 -18 11 -35 29 -39 40 -4 11
-20 36 -35 56 -16 20 -29 44 -29 52 0 8 -7 21 -16 28 -19 16 -68 120 -78 167
-11 47 -32 41 -27 -8 2 -14 19 -56 42 -105 8 -17 32 -103 70 -250 5 -21 25
-73 43 -115 56 -129 71 -179 59 -191 -41 -41 -165 102 -188 214 -4 18 -19 48
-34 67 -41 53 -43 57 -57 137 -10 57 -18 78 -37 93 -13 11 -30 34 -37 52 -27
71 -40 94 -63 115 -14 11 -28 35 -32 52 -4 18 -22 47 -42 66 -23 22 -34 41
-32 57 4 38 -12 77 -38 98 -28 21 -36 24 -46 13z m633 -1063 c23 -12 16 -37
-11 -45 -22 -7 -49 10 -49 30 0 8 8 16 18 18 9 3 18 5 20 6 2 0 12 -4 22 -9z
m50 -115 c14 -17 5 -36 -15 -28 -16 6 -21 43 -6 43 5 0 14 -7 21 -15z m-160
-573 c79 -29 151 -52 160 -52 9 0 40 -12 69 -26 37 -19 49 -30 42 -37 -18 -18
-13 -26 28 -47 22 -11 42 -24 45 -29 3 -4 -6 -35 -20 -67 -19 -44 -35 -65 -65
-84 -24 -14 -42 -35 -46 -50 -3 -14 -12 -35 -20 -48 -11 -18 -12 -31 -5 -52
10 -26 7 -30 -27 -54 -45 -32 -58 -32 -88 -4 -30 28 -29 34 7 53 17 9 30 20
30 25 0 14 -36 12 -60 -2 -17 -11 -25 -8 -60 27 -22 21 -40 46 -40 53 0 13
-77 112 -120 154 -87 87 -122 128 -144 170 -30 58 -32 75 -10 106 15 22 22 23
98 20 66 -4 107 -14 226 -56z m1560 -947 c0 -8 -7 -15 -15 -15 -16 0 -20 12
-8 23 11 12 23 8 23 -8z m-226 -611 c20 -8 20 -42 1 -81 l-15 -30 -35 15 c-40
18 -44 38 -14 76 21 26 35 31 63 20z m191 -73 c7 -12 -12 -24 -25 -16 -11 7
-4 25 10 25 5 0 11 -4 15 -9z m-1244 -557 c5 -6 12 -35 16 -63 5 -41 2 -55
-12 -71 -22 -24 -71 -35 -90 -20 -9 8 -26 9 -47 4 -18 -4 -43 -7 -55 -5 -27 3
-37 -13 -18 -29 19 -16 20 -50 1 -50 -26 0 -171 -74 -205 -104 -9 -8 -35 -20
-59 -27 -36 -11 -45 -10 -58 2 -10 11 -12 22 -6 39 5 14 5 37 -1 57 -13 41 1
59 57 74 58 15 86 36 86 63 0 13 7 29 15 36 8 7 15 22 15 34 0 12 7 32 16 45
14 20 23 23 58 18 22 -3 50 -1 61 3 32 13 214 8 226 -6z m1058 -111 c26 -26
34 -68 18 -101 -8 -15 -12 -32 -10 -39 2 -6 -6 -15 -19 -19 -46 -14 -88 -55
-88 -85 0 -19 -6 -30 -19 -34 -13 -4 -21 -17 -23 -38 -3 -31 -5 -32 -62 -39
-33 -4 -61 -6 -64 -4 -2 3 10 17 28 33 l32 29 -18 36 c-22 48 -10 77 47 113
31 20 40 31 36 46 -4 15 4 24 31 38 21 11 48 33 62 50 14 16 26 30 28 31 2 0
11 -8 21 -17z m469 -19 c2 -12 -8 -34 -21 -49 -25 -30 -52 -30 -91 -2 -19 14
-17 16 24 46 49 36 83 37 88 5z m-43 -171 c16 -15 16 -17 0 -26 -20 -11 -52
14 -41 32 10 15 22 14 41 -6z m-445 -77 c0 -16 -27 -29 -41 -20 -10 6 -12 38
-3 47 10 10 44 -12 44 -27z m430 -69 c0 -53 -14 -61 -35 -21 -19 35 -19 36 -1
50 25 18 36 9 36 -29z m-228 -28 c5 -32 -15 -64 -33 -54 -10 7 -12 68 -2 78
15 16 31 5 35 -24z m253 -78 c0 -18 -50 -45 -69 -38 -23 9 -20 42 7 54 25 12
62 2 62 -16z m-1483 -713 c13 -13 17 -23 10 -26 -17 -5 -52 17 -52 33 0 21 17
18 42 -7z"/>
<path d="M3345 1270 c-4 -6 -3 -14 0 -20 9 -15 35 -12 35 4 0 17 -27 29 -35
16z"/>
<path d="M9910 5155 c0 -9 -9 -33 -20 -55 -20 -39 -28 -120 -12 -120 5 0 14
24 20 53 18 80 25 137 18 137 -3 0 -6 -7 -6 -15z"/>
<path d="M10220 5076 c0 -33 11 -46 31 -36 16 9 17 14 6 30 -14 23 -37 27 -37
6z"/>
<path d="M9826 4738 c-9 -12 -16 -33 -16 -47 l0 -24 25 23 c25 24 33 54 16 65
-5 3 -17 -5 -25 -17z"/>
<path d="M9805 4639 c-3 -8 -9 -34 -14 -59 -5 -25 -13 -65 -19 -90 -6 -25 -18
-97 -27 -160 -9 -63 -22 -135 -30 -160 -13 -41 -43 -404 -66 -805 -16 -274
-18 -298 -35 -384 -9 -52 -13 -103 -9 -133 4 -27 2 -62 -4 -81 -6 -18 -13 -64
-16 -102 -3 -60 -7 -72 -29 -88 -20 -14 -25 -24 -20 -42 5 -19 -4 -34 -40 -72
-25 -27 -49 -60 -54 -73 -13 -35 -8 -180 7 -189 16 -10 -14 -35 -61 -51 -21
-6 -38 -14 -38 -16 0 -22 35 -104 44 -104 22 0 35 23 29 50 -4 23 -1 29 17 35
30 9 45 -7 31 -33 -6 -11 -11 -38 -11 -60 0 -25 -8 -49 -22 -67 -17 -22 -19
-31 -10 -44 39 -54 44 -74 32 -111 -10 -29 -10 -42 0 -60 6 -12 16 -18 20 -14
22 23 66 316 76 504 7 143 18 185 54 222 26 26 34 28 104 28 103 0 111 -8 119
-140 6 -83 43 -325 63 -410 73 -308 76 -316 161 -435 24 -32 43 -64 43 -70 0
-6 -21 -30 -46 -55 -26 -25 -63 -69 -83 -99 -20 -30 -44 -66 -53 -80 -9 -14
-29 -31 -43 -39 -23 -12 -34 -11 -87 8 -42 14 -90 22 -152 23 l-90 2 -18 60
c-22 71 -43 93 -69 69 -24 -22 -30 -52 -12 -70 9 -8 13 -24 10 -36 -8 -31 10
-58 38 -58 17 0 25 -5 25 -17 -1 -26 -35 -63 -59 -63 -29 0 -35 -17 -7 -24 27
-7 39 -45 21 -70 -17 -23 -25 -20 -36 14 -6 16 -14 28 -19 25 -15 -9 -17 -56
-3 -71 13 -12 12 -14 -6 -14 -11 0 -29 -13 -40 -29 l-20 -28 24 -11 c14 -7 25
-20 25 -30 0 -10 -22 -62 -49 -115 -27 -53 -52 -108 -55 -123 -4 -15 -20 -39
-36 -54 -15 -14 -30 -39 -32 -55 -1 -15 -12 -33 -23 -39 -11 -6 -40 -27 -65
-46 -25 -20 -57 -44 -73 -53 -15 -10 -38 -35 -52 -56 -44 -71 -131 -144 -140
-119 -9 24 24 88 50 98 31 12 31 18 1 30 -16 6 -35 5 -56 -3 -29 -11 -33 -10
-51 13 l-19 25 -21 -25 -21 -24 25 -21 c24 -19 25 -22 11 -48 -16 -29 -12 -47
10 -47 7 0 21 -9 32 -21 19 -21 18 -21 -5 -40 -13 -10 -27 -19 -31 -19 -12 0
-50 50 -50 66 0 19 -16 25 -45 18 -18 -4 -25 -13 -25 -30 0 -19 -5 -24 -23
-24 -25 0 -57 -28 -57 -49 0 -7 -13 -17 -29 -22 -28 -10 -29 -11 -13 -30 22
-26 40 -24 64 7 24 30 59 29 72 -3 10 -21 12 -21 294 -20 280 0 284 0 261 19
-61 48 -165 79 -253 74 -45 -2 -42 20 6 50 24 15 57 38 73 51 17 13 56 41 87
61 40 26 72 58 106 107 63 92 92 110 184 119 204 18 281 50 213 86 -38 20 -35
86 7 170 59 116 129 166 318 226 44 14 80 27 80 30 0 3 -9 17 -20 31 -28 36
-26 58 14 138 20 39 37 77 40 86 9 33 95 64 190 67 66 3 97 9 122 24 19 11 34
24 34 29 0 20 68 20 133 -1 36 -12 71 -19 77 -15 14 9 -18 61 -50 82 -38 25
-140 115 -140 124 0 13 65 48 116 64 63 19 187 19 250 0 68 -21 193 -20 201 1
10 27 -21 45 -86 51 -97 9 -88 26 10 21 89 -5 264 -60 467 -145 83 -35 100
-47 144 -99 71 -84 73 -85 90 -79 25 10 28 53 12 146 -21 117 -45 145 -161
191 -49 20 -114 38 -147 42 -32 3 -66 10 -75 15 -9 5 -57 12 -106 15 -67 5
-96 12 -115 26 -72 57 -221 97 -513 140 -108 15 -134 23 -175 49 -64 42 -86
75 -86 130 l-1 45 61 11 c45 8 72 20 106 48 25 20 51 37 59 37 33 0 171 67
264 128 156 103 198 122 264 122 65 0 139 -18 198 -48 55 -28 73 -28 73 1 0
52 -113 188 -187 226 -23 11 -44 25 -47 30 -3 5 -41 27 -83 49 -158 80 -199
105 -245 148 -26 24 -52 44 -58 44 -5 0 -10 7 -10 15 0 8 -19 24 -42 36 -57
29 -168 116 -246 192 -44 43 -73 83 -96 132 -52 110 -64 138 -69 165 -3 14
-17 56 -31 94 -36 95 -22 104 47 30 45 -48 53 -62 45 -77 -14 -27 14 -63 59
-77 21 -7 49 -22 63 -35 44 -39 74 -55 103 -55 15 0 30 -7 33 -15 3 -8 29 -29
57 -46 52 -33 111 -80 179 -144 20 -19 43 -35 50 -35 30 0 277 -233 323 -305
18 -27 56 -74 84 -102 29 -30 63 -78 76 -108 34 -75 102 -149 129 -139 12 4
203 10 426 15 223 4 529 11 680 15 285 7 334 3 555 -41 44 -8 129 -13 228 -12
l157 1 0 538 c0 525 0 538 -19 538 -36 0 -61 -47 -61 -111 0 -45 -4 -60 -17
-68 -43 -22 -188 -31 -508 -32 -587 -2 -670 -1 -867 15 -300 23 -354 26 -642
28 -253 2 -269 1 -282 -17 -22 -30 -17 -51 45 -173 69 -139 94 -203 89 -228
-3 -14 -22 9 -66 76 -90 138 -187 246 -265 296 -39 25 -170 146 -247 227 -25
26 -51 47 -57 47 -17 0 -91 67 -98 89 -3 10 -17 24 -31 32 -14 7 -39 32 -54
54 -15 22 -53 66 -84 98 -31 32 -56 65 -56 73 0 8 -30 46 -67 84 -38 37 -76
77 -85 89 -11 13 -30 21 -48 21 -33 0 -34 -2 -21 -28 5 -9 21 -43 35 -75 24
-54 85 -144 151 -224 35 -42 30 -67 -14 -73 -22 -3 -37 -12 -41 -25 -7 -19 -9
-18 -18 7 -6 15 -22 45 -36 66 -28 45 -90 193 -100 238 -4 18 -23 50 -43 73
-35 41 -39 71 -8 71 18 0 18 2 4 33 -6 14 -21 29 -34 35 -13 6 -25 22 -28 39
-6 31 -27 91 -40 111 -5 6 -17 12 -27 12 -22 0 -27 23 -29 140 -1 79 -13 122
-26 89z m1455 -1734 c0 -14 -2 -25 -4 -25 -2 0 -6 11 -8 25 -3 14 -1 25 3 25
5 0 9 -11 9 -25z m-860 -121 c0 -19 -16 -18 -24 2 -11 27 -7 37 9 24 8 -7 15
-19 15 -26z m127 -37 c12 -11 12 -19 2 -41 -10 -20 -10 -32 -2 -45 9 -14 6
-22 -13 -40 -13 -13 -24 -27 -24 -32 0 -5 -11 -9 -25 -9 -30 0 -32 11 -5 28
11 7 17 18 14 27 -4 8 -1 15 6 15 7 0 10 13 8 32 -4 41 -29 48 -48 13 -7 -14
-19 -25 -27 -25 -19 0 -16 37 5 49 15 9 15 13 3 32 -13 22 -13 22 40 16 29 -4
59 -13 66 -20z m-1041 -1514 c-11 -11 -17 4 -9 23 7 18 8 18 11 1 2 -10 1 -21
-2 -24z"/>
<path d="M10220 4519 c-115 -15 -153 -24 -157 -35 -4 -12 68 -34 107 -34 14 0
20 -5 17 -13 -8 -22 5 -32 67 -52 46 -14 63 -15 77 -6 25 15 39 14 39 -4 0 -8
5 -15 11 -15 6 0 35 -7 65 -16 40 -11 57 -22 66 -42 25 -53 140 -93 155 -55 4
10 1 19 -6 21 -7 2 -21 13 -29 23 -9 11 -29 19 -44 19 -23 0 -28 4 -28 23 0
27 -33 61 -70 72 -14 4 -41 25 -61 46 -20 22 -45 39 -56 39 -11 0 -28 9 -38
20 -20 22 -19 22 -115 9z"/>
<path d="M2731 4173 c0 -10 4 -27 9 -38 7 -16 9 -13 9 18 1 20 -3 37 -9 37 -5
0 -10 -8 -9 -17z"/>
<path d="M2740 4066 c0 -16 5 -26 15 -26 8 0 15 6 15 14 0 7 -7 19 -15 26 -13
11 -15 8 -15 -14z"/>
<path d="M4854 3729 c-9 -16 21 -43 41 -36 13 5 14 11 5 27 -12 22 -35 26 -46
9z"/>
<path d="M5030 3721 c-7 -13 -7 -22 0 -26 13 -8 30 3 30 20 0 23 -18 27 -30 6z"/>
<path d="M9110 3659 c-69 -4 -174 -14 -235 -23 -60 -9 -132 -16 -160 -17 -67
0 -226 -32 -225 -44 0 -16 172 -11 315 9 72 9 177 22 235 27 136 13 493 19
510 9 9 -5 9 -13 3 -25 -6 -10 -7 -28 -2 -44 5 -14 11 -39 15 -56 6 -27 7 -28
14 -10 5 11 9 41 9 66 1 51 -27 99 -58 99 -10 0 -21 3 -25 8 -9 9 -227 9 -396
1z"/>
<path d="M2305 3388 c-218 -11 -426 -13 -660 -7 -82 2 -222 1 -310 -4 -252
-12 -835 -28 -843 -23 -6 4 -430 10 -479 7 -10 -1 -13 -107 -13 -494 l0 -493
567 0 c313 1 692 -5 843 -11 151 -7 370 -15 485 -18 116 -3 255 -10 310 -15
191 -18 428 -10 453 14 3 4 7 48 9 99 2 50 6 102 9 115 7 33 33 27 49 -12 8
-19 28 -45 45 -58 17 -12 49 -40 72 -60 48 -43 65 -46 101 -18 14 11 46 23 72
26 53 8 63 21 60 82 -1 36 -7 47 -38 73 -20 17 -37 37 -37 44 0 7 -18 29 -39
47 -22 18 -45 45 -51 59 -7 15 -26 32 -43 40 -23 10 -33 23 -38 46 -9 43 -24
60 -76 84 -29 13 -43 26 -43 38 0 11 -5 21 -12 23 -20 7 -37 123 -37 254 -1
151 -7 162 -96 168 -33 2 -150 -1 -260 -6z"/>
<path d="M8423 3284 c-8 -21 23 -84 41 -84 23 0 28 17 6 23 -16 4 -19 11 -14
35 4 21 2 31 -10 35 -10 4 -19 1 -23 -9z"/>
<path d="M8454 3167 c-7 -19 43 -97 62 -97 8 0 14 -5 14 -11 0 -6 13 -24 30
-40 23 -23 33 -28 47 -20 10 5 26 12 36 15 25 8 16 30 -12 34 -14 2 -28 15
-36 36 -9 22 -26 38 -52 49 -21 9 -48 24 -60 33 -20 14 -23 15 -29 1z"/>
<path d="M11294 2375 c-12 -19 -25 -25 -53 -25 -20 0 -47 -7 -61 -15 -14 -8
-39 -21 -57 -30 -17 -8 -38 -23 -45 -34 -7 -10 -35 -33 -62 -51 -27 -18 -57
-48 -68 -65 -13 -23 -26 -32 -43 -32 -26 0 -55 -19 -55 -34 0 -14 58 -11 67 4
4 6 33 20 63 31 30 10 73 27 95 38 47 22 232 39 337 31 55 -5 69 -3 73 10 9
21 -36 104 -83 155 -47 50 -83 56 -108 17z"/>
<path d="M1880 2170 c-14 -4 -70 -18 -125 -30 -55 -12 -157 -44 -227 -71 -69
-27 -129 -49 -132 -49 -4 0 -25 -12 -49 -27 -23 -15 -69 -37 -102 -49 -45 -16
-61 -27 -63 -43 -5 -32 17 -34 103 -6 44 14 102 25 130 25 62 0 290 34 328 49
15 6 51 28 80 49 28 21 78 47 110 57 32 11 66 29 77 40 18 19 18 23 4 43 -12
18 -25 22 -62 21 -26 0 -58 -4 -72 -9z"/>
<path d="M2974 1802 c-22 -17 -36 -50 -38 -89 -1 -12 -9 -30 -18 -40 -15 -16
-15 -25 -6 -63 6 -25 15 -50 20 -56 14 -18 79 9 95 39 7 15 22 31 33 37 15 8
20 21 20 55 0 24 -4 46 -9 49 -5 3 -8 17 -8 31 0 52 -47 71 -89 37z"/>
<path d="M5252 1808 c-16 -16 -15 -38 1 -38 18 0 49 34 40 43 -10 11 -28 8
-41 -5z"/>
<path d="M2714 1723 c-12 -78 37 -362 64 -371 18 -6 42 29 42 62 0 19 6 39 14
45 9 7 12 28 10 62 -2 40 -14 74 -56 150 -29 55 -56 99 -60 99 -4 0 -10 -21
-14 -47z"/>
<path d="M9455 1651 c-6 -11 9 -23 19 -14 9 9 7 23 -3 23 -6 0 -12 -4 -16 -9z"/>
<path d="M10670 1576 c0 -20 61 -55 150 -87 42 -14 115 -45 161 -68 69 -34 95
-54 148 -114 68 -76 133 -127 165 -127 15 0 17 5 12 31 -10 53 -76 191 -117
245 -66 90 -93 99 -359 124 -137 13 -160 12 -160 -4z"/>
<path d="M11338 1414 c-7 -6 5 -51 22 -85 19 -38 82 -99 101 -99 51 0 10 95
-69 160 -38 31 -45 34 -54 24z"/>
<path d="M5430 1375 c0 -9 6 -12 15 -9 8 4 12 10 9 15 -8 14 -24 10 -24 -6z"/>
<path d="M5480 1355 c0 -9 9 -15 21 -15 18 0 19 2 9 15 -7 8 -16 15 -21 15 -5
0 -9 -7 -9 -15z"/>
<path d="M7852 1254 c-12 -8 -22 -23 -22 -32 1 -24 24 -52 43 -52 9 0 27 -5
41 -11 21 -10 29 -8 52 10 15 11 31 21 37 21 6 0 19 8 29 17 13 11 37 17 76
17 47 1 57 4 60 19 3 16 0 18 -28 12 -20 -4 -41 -2 -55 5 -19 10 -33 8 -82 -9
-73 -26 -79 -26 -86 -1 -6 24 -34 26 -65 4z"/>
<path d="M10160 1206 c0 -28 7 -40 36 -62 19 -15 42 -40 50 -56 8 -15 22 -28
31 -28 9 0 62 -22 118 -49 227 -110 251 -92 92 70 -64 65 -104 98 -132 108
-22 8 -52 22 -67 32 -17 13 -43 19 -77 19 l-51 0 0 -34z"/>
<path d="M12470 1194 c-14 -2 -53 -11 -86 -20 -48 -12 -126 -16 -350 -17 -159
-1 -317 0 -351 3 -58 5 -64 3 -92 -24 -34 -33 -64 -103 -91 -213 -19 -82 -40
-119 -75 -135 -20 -9 -29 -8 -45 7 -11 10 -20 25 -20 32 0 16 -69 87 -116 120
-77 54 -267 136 -364 156 -31 7 -92 -5 -97 -19 -6 -17 128 -113 216 -154 24
-11 50 -28 58 -38 31 -39 63 -114 63 -147 0 -41 15 -75 33 -75 7 0 12 -13 12
-32 0 -23 5 -33 15 -33 16 0 17 17 5 48 -4 10 -3 17 4 17 6 0 11 -7 11 -15 0
-21 23 -19 50 5 26 23 58 26 66 7 8 -22 -23 -193 -44 -240 -29 -65 -68 -97
-119 -97 -48 0 -38 10 -143 -150 -38 -58 -83 -122 -100 -142 l-32 -38 1311 0
1311 0 0 570 0 570 -57 1 c-32 0 -67 2 -78 3 -168 24 -230 28 -269 16 -63 -19
-143 -21 -194 -5 -26 8 -114 19 -197 25 -82 5 -163 12 -180 14 -16 2 -41 2
-55 0z"/>
<path d="M5925 1149 c-10 -14 -1 -21 19 -13 9 3 13 10 10 15 -7 12 -21 11 -29
-2z"/>
<path d="M5863 1052 c-21 -34 -1 -47 50 -33 24 7 57 12 73 11 50 -4 66 -1 58
11 -3 6 -20 9 -37 6 -17 -2 -51 2 -75 9 -57 17 -55 18 -69 -4z"/>
<path d="M10125 870 c-8 -12 32 -42 52 -38 30 6 21 32 -15 39 -18 4 -34 3 -37
-1z"/>
<path d="M10234 826 c-18 -14 -18 -16 -2 -43 9 -15 29 -34 45 -42 140 -68 206
-110 280 -175 69 -61 72 -63 144 -71 103 -12 160 -10 170 6 18 28 9 46 -41 79
-12 8 -33 23 -45 33 -13 9 -29 17 -36 17 -12 0 -64 51 -116 113 -13 15 -31 27
-41 27 -10 0 -54 9 -98 21 -100 26 -204 49 -225 49 -8 0 -24 -6 -35 -14z"/>
<path d="M9890 751 c0 -28 5 -44 15 -48 24 -9 29 4 19 44 -13 53 -34 55 -34 4z"/>
<path d="M5265 394 c-22 -8 -57 -28 -77 -44 -20 -17 -48 -30 -62 -30 -15 0
-30 -8 -36 -20 -9 -16 -6 -22 15 -36 19 -12 23 -22 19 -40 -5 -18 -2 -24 9
-24 9 0 18 4 21 9 6 10 82 30 131 35 24 3 30 8 32 30 1 20 -2 26 -11 23 -17
-7 -36 12 -36 35 0 14 8 18 33 18 41 0 73 21 64 44 -8 20 -47 20 -102 0z"/>
<path d="M2773 352 c-69 -52 -80 -81 -38 -100 21 -10 27 -8 40 11 8 12 15 25
15 30 0 5 14 25 30 44 28 31 40 64 23 63 -5 -1 -36 -22 -70 -48z"/>
<path d="M5576 378 c-18 -26 -21 -48 -6 -48 14 0 60 46 60 60 0 19 -39 10 -54
-12z"/>
<path d="M8797 393 c-4 -3 -7 -15 -7 -25 0 -26 24 -17 28 10 3 21 -8 29 -21
15z"/>
<path d="M8645 301 c-3 -5 -1 -12 4 -16 6 -3 7 -13 4 -21 -9 -24 18 -36 38
-16 15 16 14 19 -8 40 -27 25 -30 26 -38 13z"/>
<path d="M5970 276 c-9 -12 -7 -21 11 -46 31 -41 65 -38 61 5 -6 52 -44 74
-72 41z"/>
<path d="M5375 261 c-7 -12 34 -41 57 -41 23 0 23 13 0 33 -20 19 -48 22 -57
8z"/>
<path d="M10577 173 c-44 -43 104 -153 206 -153 46 0 49 2 63 36 8 20 14 37
12 39 -14 12 -171 55 -199 55 -24 0 -39 5 -43 15 -6 15 -28 20 -39 8z"/>
<path d="M5200 150 c0 -5 7 -10 15 -10 8 0 15 5 15 10 0 6 -7 10 -15 10 -8 0
-15 -4 -15 -10z"/>
<path d="M5611 146 c-13 -15 4 -26 40 -26 24 0 24 9 2 26 -23 17 -28 17 -42 0z"/>
<path d="M5720 145 c0 -8 7 -15 15 -15 8 0 15 7 15 15 0 8 -7 15 -15 15 -8 0
-15 -7 -15 -15z"/>
<path d="M5395 10 c-4 -6 8 -10 30 -10 22 0 34 4 30 10 -8 13 -52 13 -60 0z"/>
<path d="M5605 10 c-4 -6 7 -10 27 -10 25 0 29 3 18 10 -19 13 -37 13 -45 0z"/>
<path d="M2853 3 c9 -2 25 -2 35 0 9 3 1 5 -18 5 -19 0 -27 -2 -17 -5z"/>
</g>
</svg>
